<svg width="181" height="80" viewBox="0 0 181 80" fill="none" xmlns="http://www.w3.org/2000/svg">
<path d="M118.936 58.8635H117.308L117.191 56.2324L117.142 55.1839C117.126 55.3858 117.106 55.5779 117.083 55.7603C117.061 55.9426 117.035 56.1217 117.002 56.2943L116.514 58.8635H115.244L114.827 56.2878C114.801 56.138 114.768 55.8808 114.726 55.5193C114.719 55.464 114.71 55.3533 114.693 55.1839L114.657 56.2487L114.521 58.8635H112.863L113.534 53.0967H115.472L115.797 55.0407C115.823 55.2002 115.849 55.3728 115.869 55.5584C115.892 55.744 115.908 55.9492 115.927 56.1673C115.96 55.8026 116.006 55.4738 116.061 55.1839L116.458 53.0967H118.383L118.943 58.8635H118.936Z" fill="#4C2893"/>
<path d="M123.783 58.8635H122.171L122.054 58.1308H121.005L120.878 58.8635H119.27L120.657 53.0967H122.562L123.783 58.8635ZM121.875 56.8935L121.774 56.2227C121.774 56.2227 121.767 56.1869 121.757 56.1217C121.751 56.0664 121.725 55.8515 121.679 55.4705C121.673 55.4282 121.669 55.3695 121.66 55.2979C121.65 55.2263 121.643 55.1318 121.63 55.0179L121.581 54.4708C121.575 54.5229 121.568 54.5815 121.562 54.6467C121.552 54.7118 121.542 54.7834 121.533 54.8583C121.516 55.0114 121.503 55.1188 121.497 55.1807C121.49 55.2393 121.484 55.2784 121.48 55.2881L121.373 55.985L121.217 56.8902H121.875V56.8935Z" fill="#4C2893"/>
<path d="M128.338 58.8632H126.654L125.886 56.8085C125.879 56.7727 125.866 56.7271 125.847 56.6717C125.827 56.6131 125.805 56.5447 125.779 56.4666L125.788 56.8476V58.8664H124.238V53.0996H125.834C126.537 53.0996 127.061 53.2364 127.41 53.5132C127.853 53.8681 128.074 54.3696 128.074 55.0208C128.074 55.7176 127.778 56.1996 127.182 56.4666L128.341 58.8664L128.338 58.8632ZM125.795 55.7665H125.899C126.078 55.7665 126.228 55.6981 126.348 55.5613C126.469 55.4246 126.527 55.2487 126.527 55.0371C126.527 54.6073 126.303 54.3891 125.85 54.3891H125.795V55.7632V55.7665Z" fill="#4C2893"/>
<path d="M133.085 58.8635H131.404L130.369 56.2032L130.411 58.8635H128.852V53.0967H130.411L130.369 55.5714L131.287 53.0967H132.932L131.688 55.8808L133.085 58.8668V58.8635Z" fill="#4C2893"/>
<path d="M137.689 58.8635H136.077L135.96 58.1308H134.911L134.784 58.8635H133.176L134.563 53.0967H136.468L137.689 58.8635ZM135.781 56.8935L135.68 56.2227C135.68 56.2227 135.673 56.1869 135.664 56.1217C135.657 56.0664 135.631 55.8515 135.585 55.4705C135.579 55.4282 135.576 55.3695 135.566 55.2979C135.556 55.2263 135.55 55.1318 135.537 55.0179L135.488 54.4708C135.481 54.5229 135.475 54.5815 135.468 54.6467C135.458 54.7118 135.449 54.7834 135.439 54.8583C135.423 55.0114 135.41 55.1188 135.403 55.1807C135.397 55.2393 135.39 55.2784 135.387 55.2881L135.279 55.985L135.123 56.8902H135.781V56.8935Z" fill="#4C2893"/>
<path d="M141.855 58.8635H137.883V58.7398L139.234 55.6496C139.335 55.464 139.413 55.3109 139.475 55.1904C139.537 55.07 139.579 54.9853 139.609 54.9365C139.657 54.8388 139.752 54.676 139.902 54.4513H138.228V53.0967H142.051V53.2562L140.631 56.3985C140.54 56.6004 140.446 56.7958 140.354 56.9846C140.263 57.1735 140.169 57.3624 140.078 57.548C140.24 57.535 140.371 57.5252 140.465 57.5187C140.559 57.5122 140.621 57.5089 140.651 57.5089L141.859 57.4763V58.8635H141.855Z" fill="#4C2893"/>
<path d="M145.322 58.8635H142.594V53.0967H144.153V57.4796H145.322V58.8668V58.8635Z" fill="#4C2893"/>
<path d="M150.146 58.8635H148.534L148.417 58.1308H147.368L147.241 58.8635H145.633L147.02 53.0967H148.925L150.146 58.8635ZM148.238 56.8935L148.137 56.2227C148.137 56.2227 148.13 56.1869 148.121 56.1217C148.114 56.0664 148.088 55.8515 148.042 55.4705C148.036 55.4282 148.033 55.3695 148.023 55.2979C148.013 55.2263 148.007 55.1318 147.994 55.0179L147.945 54.4708C147.938 54.5229 147.932 54.5815 147.925 54.6467C147.915 54.7118 147.906 54.7834 147.896 54.8583C147.88 55.0114 147.867 55.1188 147.86 55.1807C147.854 55.2393 147.847 55.2784 147.844 55.2881L147.736 55.985L147.58 56.8902H148.238V56.8935Z" fill="#4C2893"/>
<path d="M154.697 58.8632H153.014L152.245 56.8085C152.239 56.7727 152.226 56.7271 152.206 56.6717C152.187 56.6131 152.164 56.5447 152.138 56.4666L152.148 56.8476V58.8664H150.598V53.0996H152.193C152.897 53.0996 153.421 53.2364 153.769 53.5132C154.212 53.8681 154.434 54.3696 154.434 55.0208C154.434 55.7176 154.137 56.1996 153.541 56.4666L154.701 58.8664L154.697 58.8632ZM152.154 55.7665H152.258C152.437 55.7665 152.587 55.6981 152.708 55.5613C152.828 55.4246 152.887 55.2487 152.887 55.0371C152.887 54.6073 152.662 54.3891 152.209 54.3891H152.154V55.7632V55.7665Z" fill="#4C2893"/>
<path d="M156.771 58.8635H155.211V53.0967H156.771V58.8635Z" fill="#4C2893"/>
<path d="M112.154 18.2026C112.213 18.2026 112.271 18.2059 112.326 18.2059C113.499 18.2059 114.551 17.5449 115.234 16.3661C116.097 14.8813 116.153 12.9926 115.368 11.7716C114.736 10.7914 113.671 10.3258 112.362 10.456C110.327 10.6612 109.155 12.8396 109.201 14.8324C109.243 16.7829 110.402 18.105 112.154 18.2026Z" fill="#4C2893"/>
<path d="M160.065 19.9648C159.576 19.4666 159.335 18.8674 159.348 18.1608C159.361 17.4575 159.618 16.8648 160.123 16.3862C160.628 15.9075 161.247 15.673 161.979 15.6861C162.712 15.6991 163.321 15.9531 163.809 16.4513C164.298 16.9495 164.539 17.5486 164.526 18.252C164.513 18.9553 164.255 19.548 163.747 20.0299C163.243 20.5086 162.624 20.743 161.891 20.73C161.159 20.717 160.55 20.463 160.061 19.9648H160.065ZM160.621 16.8485C160.234 17.223 160.038 17.6659 160.029 18.1738C160.019 18.6818 160.201 19.1312 160.576 19.5187C160.947 19.9062 161.393 20.1048 161.904 20.1146C162.419 20.1243 162.868 19.9387 163.252 19.5643C163.64 19.1898 163.835 18.7469 163.845 18.239C163.855 17.731 163.672 17.2816 163.298 16.8941C162.924 16.5066 162.481 16.308 161.966 16.2982C161.452 16.2885 161.002 16.4741 160.618 16.8485H160.621ZM160.892 19.4828L160.937 16.8941L162.165 16.9169C162.451 16.9202 162.679 17.0048 162.852 17.1709C163.024 17.3337 163.109 17.5389 163.103 17.7863C163.099 17.9947 163.021 18.1771 162.868 18.3334C162.806 18.4018 162.735 18.4539 162.647 18.4929L163.174 19.5252L162.321 19.5122L161.96 18.6883H161.686L161.673 19.5024L160.888 19.4894L160.892 19.4828ZM161.702 18.0306L162.044 18.0371C162.113 18.0371 162.171 18.0175 162.217 17.9785C162.262 17.9361 162.285 17.8905 162.289 17.8352C162.289 17.7798 162.269 17.731 162.223 17.6919C162.178 17.6528 162.122 17.63 162.054 17.6268L161.712 17.6203L161.706 18.0306H161.702Z" fill="#4C2893"/>
<path d="M178.872 45.4512C175.427 43.7026 170.992 43.9533 165.271 43.0839C162.708 42.6118 156.316 42.2406 156.316 42.2406C147.436 41.7293 137.192 42.0256 125.87 43.1263C119.869 43.7091 114.402 44.5037 109.198 45.5424C109.332 44.9921 109.68 43.364 110.397 40.3161C112.852 40.4073 116.251 38.6489 117.518 36.7864L117.954 37.76L118.019 37.8446C119.244 39.4239 120.882 40.2087 122.741 40.1077C125.372 39.9677 128.094 38.066 129.892 35.9169C130.615 37.265 131.676 37.8186 132.546 38.0335C134.509 38.5219 136.769 37.6134 138.452 36.2588L138.534 36.6854L138.837 36.8906C139.628 37.4278 140.54 37.532 141.276 37.1738C142.09 36.7766 142.559 35.4122 143.646 31.2345C143.933 30.1404 144.226 29.0104 144.431 28.4406C145.483 27.9652 145.834 28.0824 145.896 28.115C146.186 28.2582 146.355 29.1504 146.492 29.8636C146.606 30.4562 146.733 31.127 146.961 31.7587C147.957 34.52 149.709 35.5001 151.002 35.8388C153.203 36.4151 155.88 35.5815 158.162 33.6083C158.446 33.3608 160.934 31.153 160.53 29.3686C160.442 28.9746 160.129 28.2713 159.048 27.9749C158.058 27.7014 157.143 28.649 155.987 29.844C155.45 30.4009 154.841 31.0293 154.46 31.2442C153.753 31.6415 152.79 32.0583 152.197 31.8108C151.471 31.5047 151.096 30.1078 150.735 28.7564C150.514 27.9261 150.282 27.073 149.944 26.3208L155.958 19.2677L156.007 19.2059C156.56 18.4276 156.453 17.3986 155.74 16.7116C155.036 16.031 154.027 15.9529 153.281 16.5227L153.21 16.5781L146.821 23.8721L145.831 23.973C146.613 21.0457 147.488 18.102 148.335 15.2463C149.585 11.0359 150.878 6.67909 151.891 2.33851L151.959 2.04545L151.836 1.77192C151.129 0.205662 150.142 -0.0124973 149.602 0.000527654C148.667 0.0200651 147.847 0.736439 147.358 1.96404C146.45 4.24016 145.61 7.61689 144.633 11.5244C142.441 20.326 139.713 31.2768 135.024 33.6669C134.408 33.9795 133.998 34.0511 133.842 34.0381C133.304 32.931 134.867 28.0629 135.623 25.6988C136.105 24.201 136.518 22.9082 136.658 22.117L136.671 22.0193C136.736 21.0229 136.215 20.1697 135.343 19.8441C134.434 19.5087 133.399 19.8506 132.77 20.694C132.533 21.0131 132.36 21.4722 132.21 22.0128C132.165 21.9639 132.119 21.9183 132.073 21.876C130.852 20.8014 129.306 20.3032 127.606 20.4335C124.532 20.6712 121.751 22.7877 120.299 24.5266C119.332 25.6858 118.693 26.8125 118.27 27.9815C115.232 36.3207 111.771 35.8095 111.269 36.0993C111.54 34.9108 111.269 36.0993 111.601 34.8C112.393 31.6871 113.21 28.4699 113.428 25.7933C113.529 24.5233 113.08 23.5074 112.249 23.1459C111.888 22.9896 110.924 22.7487 109.827 23.947L109.674 24.113L109.618 24.3312C108.609 28.4178 106.32 35.6922 102.305 38.5024C101.133 39.323 100.621 39.3816 100.485 39.3816C100.455 39.3816 100.445 39.3816 100.445 39.3816C100.439 39.3751 100.185 39.0755 100.338 37.7046C100.449 36.7017 100.722 35.5587 100.94 34.6405C100.983 34.4712 101.019 34.3083 101.054 34.1553C101.387 32.7291 101.829 31.2833 102.253 29.8864C102.494 29.0984 102.741 28.2843 102.969 27.48L103.018 27.3042L102.992 27.1218C102.823 25.8584 102.116 25.3993 101.709 25.2364C101.006 24.9564 100.172 25.1192 99.4784 25.6793C99.0941 25.9886 98.8011 26.3794 98.6155 26.8125L98.1107 26.4868L97.9903 26.451C91.0284 24.367 87.7624 29.7952 84.8839 34.5786C83.894 36.2263 82.9562 37.7795 81.9109 39.0039C79.7064 41.5828 75.6654 45.0247 73.5684 44.5981C73.2037 44.5232 72.7641 44.0868 72.4515 43.4877C72.0347 42.6899 71.9598 41.9052 72.1031 41.5144C72.331 41.1888 73.5196 39.9905 74.2327 39.2709C74.9491 38.548 75.5677 37.9228 75.8413 37.5972C77.9709 35.0508 88.5602 21.889 87.7852 12.8334C87.4824 9.28734 85.6588 8.16393 84.6006 7.809C82.5035 7.10565 79.9148 8.09881 77.8406 10.401C75.3105 13.2111 72.953 17.7601 71.0253 23.5595C69.5079 28.1215 68.2803 33.3933 67.6551 38.0237C67.5899 38.5122 67.6095 38.8866 67.6258 39.1862C67.6518 39.6714 67.6616 39.8537 67.2708 40.3845C65.6622 42.5466 60.576 47.0403 56.9843 47.5548C56.3168 47.6492 55.7665 47.6003 55.3139 47.3985C55.4832 47.2682 55.6623 47.1314 55.8512 46.9914C59.3777 44.3148 65.9423 39.336 64.4021 34.2302C63.995 32.8821 62.3506 31.4103 61.0188 31.1986C58.9316 30.8697 56.7532 31.5763 54.7213 33.237C51.6474 35.7509 49.2149 40.3161 49.0586 43.8622C49.0424 44.2659 49.1335 44.8814 49.2735 45.7768C49.3094 46.008 49.355 46.2946 49.3843 46.5062C48.4725 47.2096 45.4019 49.1861 44.8581 49.4369C44.2198 49.7299 42.5201 50.5049 41.8493 50.0197C40.9994 49.4076 40.4752 47.138 40.016 45.1354C39.4755 42.7811 38.9122 40.3487 37.6585 38.9778L36.6947 38.1409C41.4423 33.9404 46.0596 29.7756 50.3741 25.2625C50.97 24.6405 52.4451 23.0743 53.7867 21.5894C56.6685 18.3983 56.7336 18.0336 56.7922 17.7145C56.9713 16.7083 56.548 15.7673 55.7111 15.3147C54.9069 14.8816 53.9235 15.0346 53.2104 15.7119L53.1582 15.7673C46.7858 22.918 39.8532 29.7073 32.5364 35.9723C33.0802 33.3771 33.6045 29.3654 35.2359 22.0388C35.5126 20.7949 30.8432 21.5536 29.8403 23.0059L29.8175 23.0157C29.8175 23.0157 23.0835 37.4116 2.85574 40.0003C2.85574 40.0003 0.00325625 40.0328 0 43.2435C0 44.699 1.65744 45.4545 2.30869 45.4545C9.92179 45.4675 22.8393 40.1533 28.1112 31.8369C25.555 44.3474 22.3737 54.6664 21.5759 57.7989C21.5759 57.7989 24.1321 62.1037 26.6687 58.8474L30.7553 42.7518C31.0158 42.2015 31.5791 41.7782 32.2759 41.6089C32.963 41.4428 33.6468 41.5665 34.1027 41.9377C34.7735 42.488 35.428 45.181 35.8643 46.9654C36.2192 48.4274 36.5579 49.8048 36.9584 50.6905C37.8506 52.6508 39.1531 53.8523 40.8203 54.2659C44.0636 55.0669 47.7919 52.768 51.3868 50.0328C53.9462 52.0061 57.1081 52.2763 60.5825 50.8012C63.6987 49.4792 66.4893 47.0403 68.3584 45.1256C68.4854 45.448 68.6417 45.7996 68.8892 46.1676C70.0484 47.9032 71.7449 48.7824 73.7996 48.7107C76.4502 48.6196 79.0812 47.0142 80.8201 45.6857C82.2886 44.5623 83.6595 43.2142 84.669 41.928L85.1737 43.2598L85.2453 43.3575C86.3101 44.8195 87.7526 45.6075 89.4198 45.6368C92.0509 45.6889 94.8708 43.8492 96.8213 41.7684C97.7428 43.0155 98.8564 43.4128 99.7063 43.5073C101.79 43.7384 103.985 42.4294 105.672 40.9674L104.46 46.3174C99.1983 47.532 93.7148 49.0364 88.9639 51.6479C83.2036 54.8162 79.6446 59.0102 78.0816 64.4677C76.4404 70.202 78.1076 75.6627 82.3342 78.3784C84.0242 79.466 85.9096 80 87.8536 80C90.7321 80 93.7343 78.8245 96.4142 76.5386C101.921 71.8366 104.255 63.5071 106.32 56.1578C106.942 53.9403 107.531 51.8367 108.179 49.9253C125.929 46.2457 160.012 45.4545 176.3 51.5437C179.569 52.7648 182.623 47.3659 178.856 45.4577L178.872 45.4512ZM121.468 32.3383C121.657 30.8632 122.513 28.8899 123.649 27.3042C124.913 25.5425 126.368 24.468 127.645 24.3573C127.704 24.3507 127.759 24.3507 127.817 24.3507C128.755 24.3507 129.55 25.0313 129.745 26.0245C130.211 28.3787 127.515 33.9664 124.659 35.4904C124.017 35.8323 122.842 36.3402 122.171 35.8778C121.517 35.4252 121.246 34.0706 121.468 32.3416V32.3383ZM75.5612 24.2726C76.6358 21.241 78.3388 16.8679 80.7322 13.9242C82.2626 12.0454 82.8845 12.0486 82.878 12.0421C83.3274 12.345 83.4902 14.8783 82.7836 17.6266C81.4713 22.7422 78.0067 28.636 72.7153 34.7903C73.3014 31.4624 74.2392 27.9945 75.558 24.2693L75.5612 24.2726ZM53.5425 43.657C53.689 42.7616 53.9788 41.6219 54.1482 41.1497C54.9069 39.069 57.2741 35.7216 59.1074 35.4155C59.56 35.3406 59.915 35.3699 60.0615 35.4936C60.1982 35.6076 60.221 35.9072 60.2243 36.0732C60.2471 38.3656 56.8867 41.013 54.4347 42.9472C54.1286 43.1881 53.829 43.4258 53.5425 43.6538V43.657ZM93.6757 39.5476C92.6109 40.6873 90.9209 41.7847 89.8985 41.5893C89.6347 41.5372 89.2505 41.3777 88.9444 40.5896C88.1629 38.5708 89.2309 34.8814 91.3247 32.3644C92.0867 31.4461 93.5618 30.0134 95.3201 30.0134C95.5123 30.0134 95.7109 30.0296 95.9095 30.0687C96.1342 30.111 96.6226 30.4823 96.792 30.7883C97.9479 32.8756 95.7174 37.3757 93.679 39.5542L93.6757 39.5476ZM98.8597 65.1939C97.2348 69.1632 94.1902 73.9108 90.5139 75.3371C88.863 75.9786 87.2479 75.9037 85.5774 75.1124C82.5166 73.6601 80.4326 69.4205 83.0897 63.5462C86.7074 55.5456 94.9359 53.0806 103.168 50.9836C102.08 55.4088 100.735 60.6123 98.8597 65.1971V65.1939Z" fill="#4C2893"/>
</svg>
