<svg width="555" height="246" viewBox="0 0 555 246" fill="none" xmlns="http://www.w3.org/2000/svg">
<path d="M365.25 180.772H360.25L359.89 172.692L359.74 169.472C359.69 170.092 359.63 170.682 359.56 171.242C359.49 171.802 359.41 172.352 359.31 172.882L357.81 180.772H353.91L352.63 172.862C352.55 172.402 352.45 171.612 352.32 170.502C352.3 170.332 352.27 169.992 352.22 169.472L352.11 172.742L351.69 180.772H346.6L348.66 163.062H354.61L355.61 169.032C355.69 169.522 355.77 170.052 355.83 170.622C355.9 171.192 355.95 171.822 356.01 172.492C356.11 171.372 356.25 170.362 356.42 169.472L357.64 163.062H363.55L365.27 180.772H365.25Z" fill="white"/>
<path d="M380.13 180.772H375.18L374.82 178.522H371.6L371.21 180.772H366.27L370.53 163.062H376.38L380.13 180.772ZM374.27 174.722L373.96 172.662C373.96 172.662 373.94 172.552 373.91 172.352C373.89 172.182 373.81 171.522 373.67 170.352C373.65 170.222 373.64 170.042 373.61 169.822C373.58 169.602 373.56 169.312 373.52 168.962L373.37 167.282C373.35 167.442 373.33 167.622 373.31 167.822C373.28 168.022 373.25 168.242 373.22 168.472C373.17 168.942 373.13 169.272 373.11 169.462C373.09 169.642 373.07 169.762 373.06 169.792L372.73 171.932L372.25 174.712H374.27V174.722Z" fill="white"/>
<path d="M394.12 180.772H388.95L386.59 174.462C386.57 174.352 386.53 174.212 386.47 174.042C386.41 173.862 386.34 173.652 386.26 173.412L386.29 174.582V180.782H381.53V163.072H386.43C388.59 163.072 390.2 163.492 391.27 164.342C392.63 165.432 393.31 166.972 393.31 168.972C393.31 171.112 392.4 172.592 390.57 173.412L394.13 180.782L394.12 180.772ZM386.3 171.262H386.62C387.17 171.262 387.63 171.052 388 170.632C388.37 170.212 388.55 169.672 388.55 169.022C388.55 167.702 387.86 167.032 386.47 167.032H386.3V171.252V171.262Z" fill="white"/>
<path d="M408.7 180.772H403.54L400.36 172.602L400.49 180.772H395.7V163.062H400.49L400.36 170.662L403.18 163.062H408.23L404.41 171.612L408.7 180.782V180.772Z" fill="white"/>
<path d="M422.84 180.772H417.89L417.53 178.522H414.31L413.92 180.772H408.98L413.24 163.062H419.09L422.84 180.772ZM416.97 174.722L416.66 172.662C416.66 172.662 416.64 172.552 416.61 172.352C416.59 172.182 416.51 171.522 416.37 170.352C416.35 170.222 416.34 170.042 416.31 169.822C416.28 169.602 416.26 169.312 416.22 168.962L416.07 167.282C416.05 167.442 416.03 167.622 416.01 167.822C415.98 168.022 415.95 168.242 415.92 168.472C415.87 168.942 415.83 169.272 415.81 169.462C415.79 169.642 415.77 169.762 415.76 169.792L415.43 171.932L414.95 174.712H416.97V174.722Z" fill="white"/>
<path d="M435.63 180.772H423.43V180.392L427.58 170.902C427.89 170.332 428.13 169.862 428.32 169.492C428.51 169.122 428.64 168.862 428.73 168.712C428.88 168.412 429.17 167.912 429.63 167.222H424.49V163.062H436.23V163.552L431.87 173.202C431.59 173.822 431.3 174.422 431.02 175.002C430.74 175.582 430.45 176.162 430.17 176.732C430.67 176.692 431.07 176.662 431.36 176.642C431.65 176.622 431.84 176.612 431.93 176.612L435.64 176.512V180.772H435.63Z" fill="white"/>
<path d="M446.28 180.772H437.9V163.062H442.69V176.522H446.28V180.782V180.772Z" fill="white"/>
<path d="M461.09 180.772H456.14L455.78 178.522H452.56L452.17 180.772H447.23L451.49 163.062H457.34L461.09 180.772ZM455.23 174.722L454.92 172.662C454.92 172.662 454.9 172.552 454.87 172.352C454.85 172.182 454.77 171.522 454.63 170.352C454.61 170.222 454.6 170.042 454.57 169.822C454.54 169.602 454.52 169.312 454.48 168.962L454.33 167.282C454.31 167.442 454.29 167.622 454.27 167.822C454.24 168.022 454.21 168.242 454.18 168.472C454.13 168.942 454.09 169.272 454.07 169.462C454.05 169.642 454.03 169.762 454.02 169.792L453.69 171.932L453.21 174.712H455.23V174.722Z" fill="white"/>
<path d="M475.07 180.772H469.9L467.54 174.462C467.52 174.352 467.48 174.212 467.42 174.042C467.36 173.862 467.29 173.652 467.21 173.412L467.24 174.582V180.782H462.48V163.072H467.38C469.54 163.072 471.15 163.492 472.22 164.342C473.58 165.432 474.26 166.972 474.26 168.972C474.26 171.112 473.35 172.592 471.52 173.412L475.08 180.782L475.07 180.772ZM467.26 171.262H467.58C468.13 171.262 468.59 171.052 468.96 170.632C469.33 170.212 469.51 169.672 469.51 169.022C469.51 167.702 468.82 167.032 467.43 167.032H467.26V171.252V171.262Z" fill="white"/>
<path d="M481.44 180.772H476.65V163.062H481.44V180.772Z" fill="white"/>
<path d="M344.43 55.9016C344.61 55.9016 344.79 55.9115 344.96 55.9115C348.56 55.9115 351.79 53.8815 353.89 50.2616C356.54 45.7016 356.71 39.9016 354.3 36.1516C352.36 33.1416 349.09 31.7116 345.07 32.1116C338.82 32.7416 335.22 39.4316 335.36 45.5516C335.49 51.5416 339.05 55.6016 344.43 55.9016Z" fill="white"/>
<path d="M491.56 61.3116C490.06 59.7816 489.32 57.9416 489.36 55.7716C489.4 53.6116 490.19 51.7916 491.74 50.3216C493.29 48.8516 495.19 48.1316 497.44 48.1716C499.69 48.2116 501.56 48.9916 503.06 50.5216C504.56 52.0516 505.3 53.8916 505.26 56.0516C505.22 58.2116 504.43 60.0316 502.87 61.5116C501.32 62.9816 499.42 63.7016 497.17 63.6616C494.92 63.6216 493.05 62.8416 491.55 61.3116H491.56ZM493.27 51.7416C492.08 52.8916 491.48 54.2516 491.45 55.8116C491.42 57.3716 491.98 58.7516 493.13 59.9416C494.27 61.1316 495.64 61.7416 497.21 61.7716C498.79 61.8016 500.17 61.2316 501.35 60.0816C502.54 58.9316 503.14 57.5716 503.17 56.0116C503.2 54.4516 502.64 53.0716 501.49 51.8816C500.34 50.6916 498.98 50.0816 497.4 50.0516C495.82 50.0216 494.44 50.5916 493.26 51.7416H493.27ZM494.11 59.8316L494.25 51.8816L498.02 51.9516C498.9 51.9616 499.6 52.2216 500.13 52.7316C500.66 53.2316 500.92 53.8616 500.9 54.6216C500.89 55.2616 500.65 55.8216 500.18 56.3016C499.99 56.5116 499.77 56.6716 499.5 56.7916L501.12 59.9616L498.5 59.9216L497.39 57.3916H496.55L496.51 59.8916L494.1 59.8516L494.11 59.8316ZM496.59 55.3716L497.64 55.3916C497.85 55.3916 498.03 55.3316 498.17 55.2116C498.31 55.0816 498.38 54.9416 498.39 54.7716C498.39 54.6016 498.33 54.4516 498.19 54.3316C498.05 54.2116 497.88 54.1416 497.67 54.1316L496.62 54.1116L496.6 55.3716H496.59Z" fill="white"/>
<path d="M549.32 139.582C538.74 134.212 525.12 134.982 507.55 132.312C499.68 130.862 480.05 129.722 480.05 129.722C452.78 128.152 421.32 129.062 386.55 132.442C368.12 134.232 351.33 136.672 335.35 139.862C335.76 138.172 336.83 133.172 339.03 123.812C346.57 124.092 357.01 118.692 360.9 112.972L362.24 115.962L362.44 116.222C366.2 121.072 371.23 123.482 376.94 123.172C385.02 122.742 393.38 116.902 398.9 110.302C401.12 114.442 404.38 116.142 407.05 116.802C413.08 118.302 420.02 115.512 425.19 111.352L425.44 112.662L426.37 113.292C428.8 114.942 431.6 115.262 433.86 114.162C436.36 112.942 437.8 108.752 441.14 95.9216C442.02 92.5616 442.92 89.0916 443.55 87.3416C446.78 85.8816 447.86 86.2416 448.05 86.3416C448.94 86.7816 449.46 89.5216 449.88 91.7116C450.23 93.5316 450.62 95.5916 451.32 97.5316C454.38 106.012 459.76 109.022 463.73 110.062C470.49 111.832 478.71 109.272 485.72 103.212C486.59 102.452 494.23 95.6716 492.99 90.1916C492.72 88.9816 491.76 86.8216 488.44 85.9116C485.4 85.0716 482.59 87.9816 479.04 91.6516C477.39 93.3616 475.52 95.2916 474.35 95.9516C472.18 97.1716 469.22 98.4516 467.4 97.6916C465.17 96.7516 464.02 92.4616 462.91 88.3116C462.23 85.7616 461.52 83.1416 460.48 80.8316L478.95 59.1716L479.1 58.9816C480.8 56.5916 480.47 53.4316 478.28 51.3216C476.12 49.2316 473.02 48.9916 470.73 50.7416L470.51 50.9116L450.89 73.3116L447.85 73.6216C450.25 64.6316 452.94 55.5916 455.54 46.8216C459.38 33.8916 463.35 20.5116 466.46 7.18161L466.67 6.28162L466.29 5.44159C464.12 0.631592 461.09 -0.0383796 459.43 0.00162044C456.56 0.0616204 454.04 2.26162 452.54 6.03162C449.75 13.0216 447.17 23.3916 444.17 35.3916C437.44 62.4216 429.06 96.0516 414.66 103.392C412.77 104.352 411.51 104.572 411.03 104.532C409.38 101.132 414.18 86.1816 416.5 78.9216C417.98 74.3216 419.25 70.3516 419.68 67.9216L419.72 67.6216C419.92 64.5616 418.32 61.9416 415.64 60.9416C412.85 59.9116 409.67 60.9616 407.74 63.5516C407.01 64.5316 406.48 65.9416 406.02 67.6016C405.88 67.4516 405.74 67.3116 405.6 67.1816C401.85 63.8816 397.1 62.3516 391.88 62.7516C382.44 63.4816 373.9 69.9816 369.44 75.3216C366.47 78.8816 364.51 82.3416 363.21 85.9316C353.88 111.542 343.25 109.972 341.71 110.862C342.54 107.212 341.71 110.862 342.73 106.872C345.16 97.3116 347.67 87.4316 348.34 79.2116C348.65 75.3116 347.27 72.1916 344.72 71.0816C343.61 70.6016 340.65 69.8616 337.28 73.5416L336.81 74.0516L336.64 74.7216C333.54 87.2716 326.51 109.612 314.18 118.242C310.58 120.762 309.01 120.942 308.59 120.942C308.5 120.942 308.47 120.942 308.47 120.942C308.45 120.922 307.67 120.002 308.14 115.792C308.48 112.712 309.32 109.202 309.99 106.382C310.12 105.862 310.23 105.362 310.34 104.892C311.36 100.512 312.72 96.0716 314.02 91.7816C314.76 89.3616 315.52 86.8616 316.22 84.3916L316.37 83.8516L316.29 83.2916C315.77 79.4116 313.6 78.0016 312.35 77.5016C310.19 76.6416 307.63 77.1416 305.5 78.8616C304.32 79.8116 303.42 81.0116 302.85 82.3416L301.3 81.3416L300.93 81.2316C279.55 74.8316 269.52 91.5016 260.68 106.192C257.64 111.252 254.76 116.022 251.55 119.782C244.78 127.702 232.37 138.272 225.93 136.962C224.81 136.732 223.46 135.392 222.5 133.552C221.22 131.102 220.99 128.692 221.43 127.492C222.13 126.492 225.78 122.812 227.97 120.602C230.17 118.382 232.07 116.462 232.91 115.462C239.45 107.642 271.97 67.2216 269.59 39.4116C268.66 28.5216 263.06 25.0716 259.81 23.9816C253.37 21.8216 245.42 24.8716 239.05 31.9416C231.28 40.5716 224.04 54.5416 218.12 72.3516C213.46 86.3616 209.69 102.552 207.77 116.772C207.57 118.272 207.63 119.422 207.68 120.342C207.76 121.832 207.79 122.392 206.59 124.022C201.65 130.662 186.03 144.462 175 146.042C172.95 146.332 171.26 146.182 169.87 145.562C170.39 145.162 170.94 144.742 171.52 144.312C182.35 136.092 202.51 120.802 197.78 105.122C196.53 100.982 191.48 96.4616 187.39 95.8116C180.98 94.8016 174.29 96.9716 168.05 102.072C158.61 109.792 151.14 123.812 150.66 134.702C150.61 135.942 150.89 137.832 151.32 140.582C151.43 141.292 151.57 142.172 151.66 142.822C148.86 144.982 139.43 151.052 137.76 151.822C135.8 152.722 130.58 155.102 128.52 153.612C125.91 151.732 124.3 144.762 122.89 138.612C121.23 131.382 119.5 123.912 115.65 119.702L112.69 117.132C127.27 104.232 141.45 91.4416 154.7 77.5816C156.53 75.6716 161.06 70.8616 165.18 66.3016C174.03 56.5016 174.23 55.3816 174.41 54.4016C174.96 51.3116 173.66 48.4216 171.09 47.0316C168.62 45.7016 165.6 46.1716 163.41 48.2516L163.25 48.4216C143.68 70.3816 122.39 91.2316 99.92 110.472C101.59 102.502 103.2 90.1816 108.21 67.6816C109.06 63.8616 94.72 66.1916 91.64 70.6516L91.57 70.6816C91.57 70.6816 70.89 114.892 8.77002 122.842C8.77002 122.842 0.01 122.942 0 132.802C0 137.272 5.09003 139.592 7.09003 139.592C30.47 139.632 70.14 123.312 86.33 97.7716C78.48 136.192 68.71 167.882 66.26 177.502C66.26 177.502 74.11 190.722 81.9 180.722L94.45 131.292C95.25 129.602 96.9801 128.302 99.1201 127.782C101.23 127.272 103.33 127.652 104.73 128.792C106.79 130.482 108.8 138.752 110.14 144.232C111.23 148.722 112.27 152.952 113.5 155.672C116.24 161.692 120.24 165.382 125.36 166.652C135.32 169.112 146.77 162.052 157.81 153.652C165.67 159.712 175.38 160.542 186.05 156.012C195.62 151.952 204.19 144.462 209.93 138.582C210.32 139.572 210.8 140.652 211.56 141.782C215.12 147.112 220.33 149.812 226.64 149.592C234.78 149.312 242.86 144.382 248.2 140.302C252.71 136.852 256.92 132.712 260.02 128.762L261.57 132.852L261.79 133.152C265.06 137.642 269.49 140.062 274.61 140.152C282.69 140.312 291.35 134.662 297.34 128.272C300.17 132.102 303.59 133.322 306.2 133.612C312.6 134.322 319.34 130.302 324.52 125.812L320.8 142.242C304.64 145.972 287.8 150.592 273.21 158.612C255.52 168.342 244.59 181.222 239.79 197.982C234.75 215.592 239.87 232.362 252.85 240.702C258.04 244.042 263.83 245.682 269.8 245.682C278.64 245.682 287.86 242.072 296.09 235.052C313 220.612 320.17 195.032 326.51 172.462C328.42 165.652 330.23 159.192 332.22 153.322C386.73 142.022 491.4 139.592 541.42 158.292C551.46 162.042 560.84 145.462 549.27 139.602L549.32 139.582ZM373.03 99.3116C373.61 94.7816 376.24 88.7216 379.73 83.8516C383.61 78.4416 388.08 75.1416 392 74.8016C392.18 74.7816 392.35 74.7816 392.53 74.7816C395.41 74.7816 397.85 76.8716 398.45 79.9216C399.88 87.1516 391.6 104.312 382.83 108.992C380.86 110.042 377.25 111.602 375.19 110.182C373.18 108.792 372.35 104.632 373.03 99.3216V99.3116ZM232.06 74.5416C235.36 65.2316 240.59 51.8016 247.94 42.7616C252.64 36.9916 254.55 37.0016 254.53 36.9816C255.91 37.9116 256.41 45.6916 254.24 54.1316C250.21 69.8416 239.57 87.9416 223.32 106.842C225.12 96.6216 228 85.9716 232.05 74.5316L232.06 74.5416ZM164.44 134.072C164.89 131.322 165.78 127.822 166.3 126.372C168.63 119.982 175.9 109.702 181.53 108.762C182.92 108.532 184.01 108.622 184.46 109.002C184.88 109.352 184.95 110.272 184.96 110.782C185.03 117.822 174.71 125.952 167.18 131.892C166.24 132.632 165.32 133.362 164.44 134.062V134.072ZM287.69 121.452C284.42 124.952 279.23 128.322 276.09 127.722C275.28 127.562 274.1 127.072 273.16 124.652C270.76 118.452 274.04 107.122 280.47 99.3916C282.81 96.5716 287.34 92.1716 292.74 92.1716C293.33 92.1716 293.94 92.2216 294.55 92.3416C295.24 92.4716 296.74 93.6116 297.26 94.5516C300.81 100.962 293.96 114.782 287.7 121.472L287.69 121.452ZM303.62 200.212C298.63 212.402 289.28 226.982 277.99 231.362C272.92 233.332 267.96 233.102 262.83 230.672C253.43 226.212 247.03 213.192 255.19 195.152C266.3 170.582 291.57 163.012 316.85 156.572C313.51 170.162 309.38 186.142 303.62 200.222V200.212Z" fill="white"/>
</svg>
